<svg id="Camada_1" xmlns="http://www.w3.org/2000/svg" viewBox="0 0 56.9 56.9"><style>.st0{fill:none;stroke:#09a78a;stroke-width:2;stroke-miterlimit:10}.st1{fill:#09a78a}</style><circle class="st0" cx="28.5" cy="28.5" r="27.5"/><path class="st1" d="M39 29.2c-.7-1-1.8-1.6-3.3-2 1.9-1 2.7-2.6 2.5-4.9-.1-.8-.3-1.6-.7-2.2s-.9-1.1-1.6-1.5c-.7-.4-1.4-.7-2.1-.9-.8-.2-1.7-.3-2.7-.4v-4.8h-2.9v4.7h-2.3v-4.7H23v4.8h-5.8v3.1h2.1c1 0 1.5.4 1.7 1.3v5.5h.3-.3V35c-.1.6-.5 1-1.1 1h-2.1l-.8 3.4h5.8v4.9h2.9v-4.8H28v4.8h2.9v-4.9c1-.1 2-.1 2.8-.3.8-.1 1.6-.4 2.3-.7s1.3-.7 1.8-1.1c.5-.4.9-1 1.2-1.7s.5-1.5.6-2.4c.4-1.6.1-3-.6-4zm-13.1-8.4h2.9c.5 0 .9.1 1.2.2.3.1.7.2 1 .3.4.1.7.3.9.5s.4.5.6.8.2.7.2 1.1-.1.7-.2 1c-.1.3-.3.5-.5.7s-.5.4-.7.5-.5.3-.9.4-.7.2-1 .2c-.3.1-.6.1-1 .1h-2.6l.1-5.8zm8 12.9c-.1.3-.3.5-.5.8-.2.2-.4.4-.8.6-.3.2-.6.3-.9.4-.3.1-.6.2-1.1.3-.4.1-.8.1-1.1.2-.3 0-.7.1-1.1.1h-2.6v-6.4h2.1c.3 0 .8 0 1.3.1.6 0 1 .1 1.4.2s.8.2 1.2.4c.5.2.8.4 1.1.6s.5.5.7.9.3.8.3 1.2c.2 0 .1.3 0 .6z"/></svg>