<svg id="Camada_1" xmlns="http://www.w3.org/2000/svg" viewBox="0 0 206.7 44.3"><style>.st0{fill:#f4f6f7}.st1{fill:#fff}.st2{fill:#ededed}.st3{fill:#252a2f}.st4{opacity:.3;clip-path:url(#SVGID_2_)}.st5{filter:url(#Adobe_OpacityMaskFilter)}.st6{clip-path:url(#SVGID_4_);fill:url(#SVGID_6_)}.st7{clip-path:url(#SVGID_8_);fill:#15212e}.st8{fill:#fff;stroke:#fff;stroke-miterlimit:10}.st9{opacity:7e-2;clip-path:url(#SVGID_10_)}.st10{fill:none;stroke:#112127;stroke-miterlimit:10}.st11{clip-path:url(#SVGID_10_)}.st12{fill:#d9d9d9}.st13{clip-path:url(#SVGID_12_)}.st14{fill:#112127}.st15{fill:#ff6e02}.st16{fill:#0e141a;fill-opacity:.3}.st17{fill:#00d16a}.st18{filter:url(#Adobe_OpacityMaskFilter_1_)}.st19{mask:url(#b_2_)}.st20{fill:#0e141a;fill-opacity:.6}.st21{filter:url(#Adobe_OpacityMaskFilter_2_)}.st22{mask:url(#b_1_)}.st23{fill:#00d16a;fill-opacity:.2}.st24{fill:none;stroke:#fff;stroke-width:4}.st25{fill:#00d16a;fill-opacity:.5}.st26{fill:#ff4040}.st27{filter:url(#Adobe_OpacityMaskFilter_3_)}.st28{mask:url(#b_12_);fill:#0e141a;fill-opacity:.5}.st29{filter:url(#Adobe_OpacityMaskFilter_4_)}.st30{mask:url(#b_11_);fill:#fff}.st31{fill:#ff4040;fill-opacity:.2}.st32{filter:url(#Adobe_OpacityMaskFilter_5_)}.st33{mask:url(#b_8_);fill:#ff4040}.st34{fill:#9252ec;fill-opacity:.2}.st35{filter:url(#Adobe_OpacityMaskFilter_6_)}.st36{mask:url(#b_7_);fill:#9252ec;fill-opacity:.3}.st37{filter:url(#Adobe_OpacityMaskFilter_7_)}.st38{mask:url(#b_6_);fill:#9252ec}.st39{filter:url(#Adobe_OpacityMaskFilter_8_)}.st40{mask:url(#b_5_)}.st41{fill:#ffb400;fill-opacity:.2}.st42{filter:url(#Adobe_OpacityMaskFilter_9_)}.st43{mask:url(#b_4_);fill:#ffb400}.st44{filter:url(#Adobe_OpacityMaskFilter_10_)}.st45{mask:url(#b_3_);fill:#fff}.st46{fill:#ffb400}.st47{fill:#9252ec}.st48{fill:#0e141a;fill-opacity:.5}.st49{fill:#00a1ff;fill-opacity:.2}.st50{fill-opacity:.4}.st50,.st51{fill:#00a1ff}.st52{fill:#ff6e02;fill-opacity:.2}.st53{filter:url(#Adobe_OpacityMaskFilter_11_)}.st54{mask:url(#b_30_);fill:#ff6e02}.st55{filter:url(#Adobe_OpacityMaskFilter_12_)}.st56{mask:url(#b_29_);fill:#fff}.st57{filter:url(#Adobe_OpacityMaskFilter_13_)}.st58{mask:url(#b_28_)}.st59{filter:url(#Adobe_OpacityMaskFilter_14_)}.st60{mask:url(#b_27_)}.st61{fill:#0e141a;fill-opacity:.4}.st62{fill:#1f7aff}.st63{filter:url(#Adobe_OpacityMaskFilter_15_)}.st64{mask:url(#c_1_);fill:#fff}.st65{fill:none;stroke:#00d16a;stroke-width:4;stroke-opacity:.5;stroke-dasharray:38,150.72}.st66{opacity:.5}.st67{fill:#00d16a;fill-opacity:.9}.st68{filter:url(#Adobe_OpacityMaskFilter_16_)}.st69{mask:url(#b_19_)}.st70,.st71{fill:#ffb400;fill-opacity:.4}.st71{fill-opacity:.5}.st72{filter:url(#Adobe_OpacityMaskFilter_17_)}.st73{mask:url(#b_15_)}.st74{filter:url(#Adobe_OpacityMaskFilter_18_)}.st75{mask:url(#b_14_)}.st76{filter:url(#Adobe_OpacityMaskFilter_19_)}.st77{mask:url(#b_13_);fill:none;stroke:#fff;stroke-width:4}.st78{filter:url(#Adobe_OpacityMaskFilter_20_)}.st79{mask:url(#b_10_);fill:#00d16a;fill-opacity:.3}.st80{filter:url(#Adobe_OpacityMaskFilter_21_)}.st81{mask:url(#b_9_);fill:#00d16a}.st82{fill:#a70035}.st83{fill:#fff;fill-opacity:.3}.st84{filter:url(#Adobe_OpacityMaskFilter_22_)}.st85{mask:url(#b_18_)}.st86{fill:#fff;fill-opacity:.5}.st87{opacity:.3;fill:#fff}.st88{fill:#faaf3b}.st89{fill:none;stroke:#4d4d4d;stroke-width:2;stroke-linecap:round;stroke-linejoin:round}.st90{opacity:.5;clip-path:url(#SVGID_14_)}.st91{fill:#9e0532}.st92{clip-path:url(#SVGID_14_)}.st93{fill:#d7d7db}.st94{fill:#34363f}.st95{fill:#3b3d48}.st96{fill:#977}.st97{fill:#d2d2d6}.st98{fill:#434550}.st99{fill:#23424f}.st100{fill:#92d6bc}.st101{fill:#5ea58a}.st102{fill:#7e7e85}.st103{fill:#f7d06f}.st104{fill:#d1d1d1}.st105{fill:#e6e6e6}.st106{fill:#53577a}.st107{fill:#a60035}.st108{filter:url(#Adobe_OpacityMaskFilter_23_)}.st109{mask:url(#b_16_)}.st110{opacity:.3}.st111{fill:#fff;fill-opacity:.4}.st112{fill:#95989f}.st113{fill:#f7f7fa}.st114{fill:#fff;stroke:#ccd4e3;stroke-miterlimit:10}.st115{clip-path:url(#SVGID_16_);fill:#3c926a}.st116{fill:#ffd538}.st116,.st117{clip-path:url(#SVGID_16_)}.st118{clip-path:url(#SVGID_18_);fill:#2d146e}.st119{fill:none;stroke:#d3e2e8;stroke-miterlimit:10}.st120{fill:#111b26}.st121{filter:url(#Adobe_OpacityMaskFilter_24_)}.st122{clip-path:url(#SVGID_20_);fill:url(#SVGID_22_)}.st123{fill:#15212e}.st123,.st124{clip-path:url(#SVGID_24_)}.st125{opacity:7e-2}.st125,.st126{clip-path:url(#SVGID_26_)}.st127{clip-path:url(#SVGID_28_)}.st128,.st129{clip-path:url(#SVGID_30_);fill:url(#SVGID_31_)}.st129{fill:#ffeded}.st130{filter:url(#Adobe_OpacityMaskFilter_25_)}.st131{mask:url(#b_23_)}.st132{opacity:.5}.st132,.st133{clip-path:url(#SVGID_33_)}.st134{filter:url(#Adobe_OpacityMaskFilter_26_)}.st135{mask:url(#b_17_)}.st136{opacity:.8;fill:#fff}.st137{fill:#801f32}.st138{fill:#0d1a1f}.st139{clip-path:url(#SVGID_35_);fill:#3c9242}.st140{fill:#edc226}.st140,.st141{clip-path:url(#SVGID_35_)}.st142{clip-path:url(#SVGID_37_);fill:#2d146e}.st143,.st144{fill:none;stroke:#fff;stroke-miterlimit:10}.st144{stroke:#112127;stroke-linecap:round;stroke-linejoin:round}.st145{fill:#e06e1f}.st146{fill:#ccced6}.st147{fill:#71789d}.st148{fill:none;stroke:#7795a6;stroke-width:1.5;stroke-miterlimit:10}.st149{filter:url(#Adobe_OpacityMaskFilter_27_)}.st150{mask:url(#b_35_)}.st151{opacity:.1;clip-path:url(#SVGID_39_)}.st152{fill:#6e6e6e}.st153{fill:#404040}.st154{fill:#8c8c8c}.st155,.st156,.st157,.st158,.st159,.st160,.st161{fill:none;stroke:#8c8c8c;stroke-width:2;stroke-linecap:round;stroke-linejoin:round}.st156{stroke-dasharray:6.8126,6.8126}.st157{stroke-dasharray:7.1679,7.1679}.st158{stroke-dasharray:6.9047,6.9047}.st159{stroke-dasharray:6.9191,6.9191}.st160{stroke-dasharray:6.7991,6.7991}.st161{stroke-dasharray:7.2474,7.2474}.st162,.st163{fill:none;stroke:#5ea58a;stroke-miterlimit:10}.st163{opacity:.2;stroke:#57666b}.st164{opacity:.7;fill:#f4f6f7}.st165{opacity:.1;clip-path:url(#SVGID_41_)}.st166{opacity:.15;clip-path:url(#SVGID_44_)}.st167{opacity:.1}.st168{opacity:.4}.st169{opacity:.2}.st170{fill:#159aff}.st171{clip-path:url(#SVGID_54_)}.st172{filter:url(#Adobe_OpacityMaskFilter_28_)}.st173{clip-path:url(#SVGID_56_);fill:url(#SVGID_58_)}.st174,.st175{fill:none;stroke:#fff;stroke-width:1.5;stroke-miterlimit:10}.st175{fill:#fff;stroke:#7795a6}.st176{filter:url(#Adobe_OpacityMaskFilter_29_)}.st177{clip-path:url(#SVGID_60_);fill:url(#SVGID_62_)}.st178{stroke:#5ea58a;stroke-width:1.5}.st178,.st179,.st180,.st181{fill:none;stroke-miterlimit:10}.st179{stroke-linecap:round;stroke:#fff}.st180,.st181{stroke:#ff3d3d;stroke-width:2}.st181{stroke:#5ea58a}.st182{fill:#ff3d3d}.st183{fill:none;stroke:#5ea58a;stroke-width:3;stroke-linecap:round;stroke-linejoin:round;stroke-miterlimit:10}.st184{fill:#bfc3c9}.st185{opacity:.1;clip-path:url(#SVGID_78_)}.st186{fill:none;stroke:#dadee6;stroke-miterlimit:10}.st187{opacity:.1;clip-path:url(#SVGID_80_)}.st188{filter:url(#Adobe_OpacityMaskFilter_30_)}.st189{clip-path:url(#SVGID_88_);fill:url(#SVGID_90_)}.st190{filter:url(#Adobe_OpacityMaskFilter_31_)}.st191{clip-path:url(#SVGID_92_);fill:url(#SVGID_94_)}</style><path class="st1" d="M72 20.7c1.1-1.2 2.2-2.4 2.2-4.5 0-1.5-1.1-4.1-5.4-4.1h-3c-.5 0-1.7-.1-2.6-.1-.6 0-.7.3-.7.5s.2.4.5.4c.2 0 .6 0 .8.1.6.1.8.4.9 1.2v10c0 2.4 0 4.5-.1 5.5-.1.8-.2 1.1-.5 1.2-.2 0-.5.1-.7.1-.3 0-.5.2-.5.4s.1.5.7.5h2.5c.1 0 .8 0 1.6.1h1.8c4.5 0 6.8-2.9 6.8-5.9-.1-2.9-2.6-4.7-4.3-5.4m-3.7-7.3c2.3 0 3.2 2.1 3.2 4.1 0 .9-.3 1.8-.8 2.4-.4.5-.7.6-2.1.6-.8 0-1.3-.1-1.4-.1v-6.8h.1c.2-.1.7-.2 1-.2m-.4 8.4c.6 0 1 0 1.2.1.6.1 1.2.1 2 .7 2.1 1.5 2.4 3.9 2.4 4.9 0 3.2-3 3.3-3.3 3.3-.2 0-1.4 0-2.1-.4-.6-.3-.6-.4-.9-1.6v-.1c.2-.4.2-3.6.8-5.5v-1.4zM97 30.9c-.1 0-.5 0-.9-.1-.6-.1-1.6-.4-2.8-1.8-1.2-1.4-2.7-3.4-4.4-5.7l-.6-.8c2-2 2.9-3.9 2.9-6.1 0-1.9-1.1-3.3-1.8-3.8-1.4-1.1-3.1-1.2-4.7-1.2-.5 0-1.4 0-2.1.1h-1.1c-.5 0-1.2-.1-2-.1-.6 0-.7.3-.7.5 0 .3.2.5.5.5.2 0 .2 0 .4.1.6.1.8.4.8 1.2V24c0 2.4 0 4.6-.1 5.6-.1.8-.2 1.1-.5 1.2-.3.1-.5.1-.7.1-.3 0-.5.2-.5.5 0 .2.1.5.7.5s1.8-.1 2.2-.1h.4c.6 0 1.7.1 2.7.1.6 0 .7-.4.7-.5 0-.2-.2-.5-.5-.5-.2 0-.7 0-1.1-.1-.5-.1-.6-.3-.7-1.2-.1-1.1-.1-3.2-.1-5.6v-.5l2.9.1h.1c.2.3.5.8.9 1.3.5.8 1.2 1.7 1.7 2.5l.3.4c1.2 1.7 2.1 2.9 3.1 3.5.7.4 1.4.5 2.8.5h1.7c1.2.1 1-.9.5-.9M84.7 13.4c2.6 0 4.1 1.8 4.1 4.8 0 1.7-.5 3.1-1.4 3.7-.6.4-1.3.4-1.7.4-1.2 0-2.2-.2-2.5-.4v-8.5c.1.1.7 0 1.5 0"/><path class="st1" d="M107.2 27.9c-.4 0-.5.4-.5.6-.2 1-.4 1.4-1 1.6-.6.3-1.7.3-2.3.3-2.4 0-2.6-.3-2.7-1.8v-6.5s3.3.1 4 .1c.9.1 1 .5 1.1.7.1.3.1.5.1.8 0 .3.2.5.5.5.5 0 .5-.6.5-.8 0-.2 0-1.1.1-1.6s.1-.9.2-1.1c0-.2.1-.3.1-.4 0-.4-.2-.5-.4-.5s-.4.2-.6.4c-.2.2-.4.2-1 .3h-3.5v-7s2.6 0 2.9.1c1.3.1 1.5.4 1.6.7.1.2.1.6.1.8 0 .6.4.6.5.6.1 0 .4-.1.5-.5 0-.2.1-.6.1-1.2v-.5c0-.4.1-.7.1-.9 0-.2.1-.3.1-.4 0-.5-.3-.5-.4-.5-.1 0-.3.1-.3.1h-.1c-.2 0-.5.1-1 .1h-5.8l-1.3.1h-1.5c-.6 0-.7.3-.7.5 0 .3.2.4.5.4.2 0 .3 0 .5.1.6.1.8.4.9 1.2 0 .8-.2 5.5-.2 5.5v4.5c0 2.4 0 4.5-.1 5.5-.1.8-.2 1.1-.5 1.2-.4 0-.7.1-.8.1-.3 0-.5.2-.5.4s.1.5.7.5h2.5c.4 0 .9 0 2 .1h.6c.9 0 2.2.1 3.7.1 1 0 1.4 0 1.7-.9.1-.5.3-2.3.3-2.5 0-.2 0-.7-.4-.7m28.5-1.1c-.4 0-.5.4-.5.6-.1.4-.4 1.5-.9 2-1 1.1-2.7 1.2-4.3 1.2-5.7 0-9.1-4.7-9.1-9.2 0-2.2.3-4.7 2.2-6.6 1.3-1.2 3.1-1.8 5.8-1.8 2.3 0 4.2.7 5 1.4.6.5 1 1.5 1 2.4 0 .3 0 .8.5.8.4 0 .5-.5.5-.8V16c0-.6 0-1.2.1-1.7 0-.6.1-.9.1-1.1v-.3c0-.3-.2-.5-.6-.5-.8-.1-1.6-.2-2.5-.4h-.1c-1.5-.3-3.2-.3-3.8-.3-3.5 0-6.1.9-8 2.8-2.2 2.2-3 5.2-3 7.2 0 3.3 1.1 5.9 3.2 7.8 2.2 1.9 4.9 2.9 8.7 2.9 1.6 0 3.6-.2 4.7-.6.5-.2.6-.3.8-.9.3-.9.6-3.2.6-3.4.1-.6-.3-.6-.4-.6m13.7-15.2c-7.6 0-10.4 6.3-10.4 10.3 0 5 3.2 10.4 10.3 10.4 6.1 0 10.5-4.5 10.5-10.8 0-5.9-4.2-9.9-10.4-9.9m-.2 1.3c3.7 0 7.6 2.9 7.6 9.3 0 8.2-5.7 8.6-6.9 8.6-4.7 0-8-4-8-9.6 0-5.2 2.7-8.3 7.3-8.3M169 30.7c-.2 0-.7 0-1.1-.1-.5-.1-.7-.4-.8-1.1-.1-1-.1-3-.1-5.3v-9.6c0-.9.3-1.1.7-1.2.3 0 .4-.1.6-.1.2 0 .4-.2.4-.4 0-.3-.2-.4-.6-.4-.5 0-1.4 0-2 .1h-.8c-.5 0-1.5-.1-2.1-.1-.4 0-.6.1-.6.4 0 .2.2.4.4.4s.5 0 .7.1c.4.1.6.3.6 1.2v9.6c0 2.3 0 4.3-.1 5.3-.1.7-.2 1.1-.5 1.1-.3.1-.5.1-.7.1-.3 0-.4.2-.4.4 0 .3.2.4.6.4.5 0 1.4 0 2-.1h.7c.5 0 1.7.1 2.7.1.6 0 .6-.3.6-.4.2-.2.1-.4-.2-.4m23.7-18.9c-.7 0-1.4 0-1.8.1h-1.1c-.6 0-1.4-.1-2.2-.1-.3 0-.8 0-.8.4 0 .3.2.4.5.4.2 0 .8 0 1.2.1.6.2.8.5.8 2.3l.3 12.7c-.5-.5-1.1-1.2-1.9-2-1.2-1.3-2.6-2.9-4-4.4-4.1-4.4-8-8.6-8.4-9.1-.1-.1-.1-.2-.2-.2-.4-.4-.6-.7-.9-.7-.5 0-.5.6-.5 1.6V28c0 2.3-.1 3-.6 3.1-.3.1-.7.1-1 .1-.3 0-.5.2-.5.4 0 .5.5.5.7.5.8 0 1.6 0 2.1-.1h.8c.5 0 1.3.1 2.4.1.2 0 .7 0 .7-.5 0-.2-.1-.4-.5-.4-.1 0-.7 0-1.2-.1-.5-.2-.8-.6-.8-2.8l-.3-11.9c1.2 1.4 3.8 4.2 6.4 7.1 2.8 3 6.6 6.9 6.9 7.2 1.5 1.5 1.8 1.8 2.1 1.8.5 0 .5-.5.5-2.1l.1-15.5c0-1.6.1-2 .8-2.1.3-.1.4-.1.6-.1.4 0 .5-.2.5-.4 0-.5-.5-.5-.7-.5m10.1 8.7l-.7-.6c-2.4-1.9-3.1-2.8-3.1-4.1 0-1.6 1.2-2.7 2.9-2.7 2.1 0 2.8.9 3 1.2.1.2.3.9.3 1.2 0 .2.1.6.5.6s.4-.6.4-.8c0-1.4.1-2.2.1-2.5v-.2c0-.2-.1-.4-.5-.4-.2 0-.4 0-.8-.1-.8-.2-1.5-.3-2.5-.3-3.3 0-5.6 2-5.6 4.9 0 1.8.6 3.4 3.4 5.8l1.2 1c2.3 1.9 2.9 2.8 2.9 4.5 0 1.6-1.2 3.2-3.4 3.2-.9 0-3.1-.2-3.6-2.4-.1-.3-.1-.7-.1-.9 0-.1 0-.5-.4-.5s-.4.4-.5.6v.3c0 .5-.1 1.4-.1 2.4 0 .7 0 .9.5 1.2 1 .5 2.2.7 3.6.7 1.6 0 3-.4 4-1.1 1.7-1.2 2.3-3.1 2.3-4.5.1-2.3-.6-3.9-3.8-6.5M43.1 17.7c-1-.8-4.3 0-4.3 0 2.7.7 4.6 2.4 4.6 2.4s.6-1.6-.3-2.4"/><path class="st1" d="M53.2 20.4c-.5-.5-5.3-5.2-9.7-7.1-3-1.3-3.5-6.7-12.7-9.6-4.1-1.3-11.4-.8-11.6-3.7-1.4 1.6-.7 4.5 3 4.8-1.7-.1-8.9 0-13.6 6.1-2.8 3.7-4.6 6.5-8 6.5C.3 18.1.1 19 0 20c2.3-.6 5.3-1.9 7.2-5 3-4.9 8.1-7.4 15.2-7.4v1c-6.7 0-11.6 2.3-14.4 6.9-2.1 3.5-5.5 5-8.1 5.5v1.9c2.3-.6 5.3-1.9 7.2-5 3-4.9 8.1-7.4 15.2-7.4v1c-6.7 0-11.6 2.3-14.4 6.9C6 22 2.7 23.5.1 24c.1.6.1 1.2.2 1.9 2.4-.6 5.1-1.9 6.9-4.9 3-4.9 8.1-7.4 15.2-7.4v1c-6.7 0-11.6 2.3-14.4 6.9-2 3.3-5 4.7-7.5 5.4.1.6.2 1.2.4 1.8 2.2-.7 4.6-2 6.3-4.7 3-4.9 8.1-7.4 15.2-7.4v1c-6.7 0-11.6 2.3-14.4 6.9-1.8 3-4.5 4.5-6.9 5.2.2.6.3 1.2.5 1.7 2-.7 4.1-2.1 5.5-4.5 3-4.9 8.1-7.4 15.2-7.4v1c-6.7 0-11.6 2.3-14.4 6.9-1.6 2.7-3.9 4.1-6.1 4.9.4.7.6 1.2.8 1.7 1.7-.8 3.4-2 4.6-4 3-4.9 8.1-7.4 15.2-7.4v1c-6.7 0-11.6 2.3-14.4 6.9-1.4 2.2-3.2 3.6-5 4.5.2.5.5 1 .7 1.4 1.3-.8 2.5-1.9 3.5-3.5 3-4.9 8.1-7.4 15.2-7.4v1c-6.7 0-11.6 2.3-14.4 6.9-1.1 1.8-2.4 3-3.8 3.8.2.4.5.8.8 1.2.8-.7 1.6-1.5 2.2-2.6 3-4.9 8.1-7.4 15.2-7.4v1c-6.7 0-11.6 2.3-14.4 6.9-.7 1.2-1.6 2.1-2.5 2.9.2.3.5.6.7.9.3-.4.7-.8.9-1.3 3-4.9 8.1-7.4 15.2-7.4v1c-6.7 0-11.6 2.3-14.4 6.9-.2.7-.5 1.2-.9 1.6.2.2.4.3.5.5 3-4.6 8-7 14.9-7v1c-6.6 0-11.3 2.2-14.1 6.6.2.2.5.3.7.4 3.1-3.3 7.6-5 13.4-5v1c-5.4 0-9.5 1.5-12.4 4.4.5.2 1 .2 1.6.2 5.2-3.9 16.5-4.7 24.5 1.2-2.8-5.6-3.3-9.9-.7-11.4 3.9-2.2 8.1 2.3 6.8 5.3 0 0 10.6-1 6.9-8.7 0 0 2-.5 2.7-3.7 0 0 2.2-.8 2.3-3.5 0-.5-.2-1-.9-1.8m-1.8 3.7c-1.9 0-3-2.1-3-2.1s-.8.2-.2 1.4c.5 1.2 2.2 1.5 2.3 2.6.1 1.2-1.1 2.7-1.6 2.9-.6.2-3.9.9-4.4 1.8v.8s4.2-1.3 4.4-.8c.2.4.7 2 0 3-.7.9-3.1 3.7-5.7.6s-3.6-4.2-6.8-3.7c0 0 1.4-1.6 0-3.7 0 0-.7 3.6-3.8 3.6-2.4 0-4.2-2.2-2.1-5.1 2.1-3 2.9-5.3 2.9-7.5 0 0-2-.8-2.6-4-.5-3.1-6.4-1.8-3.4 3.5 0 0-2.1-2.1-1.1-4.8 1.2-3.1 7-2 7.5 3.6 0 0 .9-2.9-.8-4.9 0 0 2.2-.8 4.4.9 2.1 1.6 3.1 1.7 5.3 2.3 1.3.3 5 1.3 10 6.7.3.4.4.6.5.9-.1.2.1 2-1.8 2"/></svg>