<svg id="Camada_1" xmlns="http://www.w3.org/2000/svg" xmlns:xlink="http://www.w3.org/1999/xlink" viewBox="0 0 739 605.6"><style>.st0{fill:#f4f6f7}.st1{fill:#fff}.st2{fill:#ededed}.st3{fill:#252a2f}.st4{opacity:.3;clip-path:url(#SVGID_2_)}.st5{filter:url(#Adobe_OpacityMaskFilter)}.st6{clip-path:url(#SVGID_4_);fill:url(#SVGID_6_)}.st7{clip-path:url(#SVGID_8_);fill:#15212e}.st8{fill:#fff;stroke:#fff;stroke-miterlimit:10}.st9{opacity:7e-2;clip-path:url(#SVGID_10_)}.st10{fill:none;stroke:#112127;stroke-miterlimit:10}.st11{clip-path:url(#SVGID_10_)}.st12{fill:#d9d9d9}.st13{clip-path:url(#SVGID_12_)}.st14{fill:#112127}.st15{fill:#ff6e02}.st16{fill:#0e141a;fill-opacity:.3}.st17{fill:#00d16a}.st18{filter:url(#Adobe_OpacityMaskFilter_1_)}.st19{mask:url(#b_2_)}.st20{fill:#0e141a;fill-opacity:.6}.st21{filter:url(#Adobe_OpacityMaskFilter_2_)}.st22{mask:url(#b_1_)}.st23{fill:#00d16a;fill-opacity:.2}.st24{fill:none;stroke:#fff;stroke-width:4}.st25{fill:#00d16a;fill-opacity:.5}.st26{fill:#ff4040}.st27{filter:url(#Adobe_OpacityMaskFilter_3_)}.st28{mask:url(#b_12_);fill:#0e141a;fill-opacity:.5}.st29{filter:url(#Adobe_OpacityMaskFilter_4_)}.st30{mask:url(#b_11_);fill:#fff}.st31{fill:#ff4040;fill-opacity:.2}.st32{filter:url(#Adobe_OpacityMaskFilter_5_)}.st33{mask:url(#b_8_);fill:#ff4040}.st34{fill:#9252ec;fill-opacity:.2}.st35{filter:url(#Adobe_OpacityMaskFilter_6_)}.st36{mask:url(#b_7_);fill:#9252ec;fill-opacity:.3}.st37{filter:url(#Adobe_OpacityMaskFilter_7_)}.st38{mask:url(#b_6_);fill:#9252ec}.st39{filter:url(#Adobe_OpacityMaskFilter_8_)}.st40{mask:url(#b_5_)}.st41{fill:#ffb400;fill-opacity:.2}.st42{filter:url(#Adobe_OpacityMaskFilter_9_)}.st43{mask:url(#b_4_);fill:#ffb400}.st44{filter:url(#Adobe_OpacityMaskFilter_10_)}.st45{mask:url(#b_3_);fill:#fff}.st46{fill:#ffb400}.st47{fill:#9252ec}.st48{fill:#0e141a;fill-opacity:.5}.st49{fill:#00a1ff;fill-opacity:.2}.st50{fill-opacity:.4}.st50,.st51{fill:#00a1ff}.st52{fill:#ff6e02;fill-opacity:.2}.st53{filter:url(#Adobe_OpacityMaskFilter_11_)}.st54{mask:url(#b_30_);fill:#ff6e02}.st55{filter:url(#Adobe_OpacityMaskFilter_12_)}.st56{mask:url(#b_29_);fill:#fff}.st57{filter:url(#Adobe_OpacityMaskFilter_13_)}.st58{mask:url(#b_28_)}.st59{filter:url(#Adobe_OpacityMaskFilter_14_)}.st60{mask:url(#b_27_)}.st61{fill:#0e141a;fill-opacity:.4}.st62{fill:#1f7aff}.st63{filter:url(#Adobe_OpacityMaskFilter_15_)}.st64{mask:url(#c_1_);fill:#fff}.st65{fill:none;stroke:#00d16a;stroke-width:4;stroke-opacity:.5;stroke-dasharray:38,150.72}.st66{opacity:.5}.st67{fill:#00d16a;fill-opacity:.9}.st68{filter:url(#Adobe_OpacityMaskFilter_16_)}.st69{mask:url(#b_19_)}.st70,.st71{fill:#ffb400;fill-opacity:.4}.st71{fill-opacity:.5}.st72{filter:url(#Adobe_OpacityMaskFilter_17_)}.st73{mask:url(#b_15_)}.st74{filter:url(#Adobe_OpacityMaskFilter_18_)}.st75{mask:url(#b_14_)}.st76{filter:url(#Adobe_OpacityMaskFilter_19_)}.st77{mask:url(#b_13_);fill:none;stroke:#fff;stroke-width:4}.st78{filter:url(#Adobe_OpacityMaskFilter_20_)}.st79{mask:url(#b_10_);fill:#00d16a;fill-opacity:.3}.st80{filter:url(#Adobe_OpacityMaskFilter_21_)}.st81{mask:url(#b_9_);fill:#00d16a}.st82{fill:#a70035}.st83{fill:#fff;fill-opacity:.3}.st84{filter:url(#Adobe_OpacityMaskFilter_22_)}.st85{mask:url(#b_18_)}.st86{fill:#fff;fill-opacity:.5}.st87{opacity:.3;fill:#fff}.st88{fill:#faaf3b}.st89{fill:none;stroke:#4d4d4d;stroke-width:2;stroke-linecap:round;stroke-linejoin:round}.st90{opacity:.5;clip-path:url(#SVGID_14_)}.st91{fill:#9e0532}.st92{clip-path:url(#SVGID_14_)}.st93{fill:#d7d7db}.st94{fill:#34363f}.st95{fill:#3b3d48}.st96{fill:#977}.st97{fill:#d2d2d6}.st98{fill:#434550}.st99{fill:#23424f}.st100{fill:#92d6bc}.st101{fill:#5ea58a}.st102{fill:#7e7e85}.st103{fill:#f7d06f}.st104{fill:#d1d1d1}.st105{fill:#e6e6e6}.st106{fill:#53577a}.st107{fill:#a60035}.st108{filter:url(#Adobe_OpacityMaskFilter_23_)}.st109{mask:url(#b_16_)}.st110{opacity:.3}.st111{fill:#fff;fill-opacity:.4}.st112{fill:#95989f}.st113{fill:#f7f7fa}.st114{fill:#fff;stroke:#ccd4e3;stroke-miterlimit:10}.st115{clip-path:url(#SVGID_16_);fill:#3c926a}.st116{fill:#ffd538}.st116,.st117{clip-path:url(#SVGID_16_)}.st118{clip-path:url(#SVGID_18_);fill:#2d146e}.st119{fill:none;stroke:#d3e2e8;stroke-miterlimit:10}.st120{fill:#111b26}.st121{filter:url(#Adobe_OpacityMaskFilter_24_)}.st122{clip-path:url(#SVGID_20_);fill:url(#SVGID_22_)}.st123{fill:#15212e}.st123,.st124{clip-path:url(#SVGID_24_)}.st125{opacity:7e-2}.st125,.st126{clip-path:url(#SVGID_26_)}.st127{clip-path:url(#SVGID_28_)}.st128,.st129{clip-path:url(#SVGID_30_);fill:url(#SVGID_31_)}.st129{fill:#ffeded}.st130{filter:url(#Adobe_OpacityMaskFilter_25_)}.st131{mask:url(#b_23_)}.st132{opacity:.5}.st132,.st133{clip-path:url(#SVGID_33_)}.st134{filter:url(#Adobe_OpacityMaskFilter_26_)}.st135{mask:url(#b_17_)}.st136{opacity:.8;fill:#fff}.st137{fill:#801f32}.st138{fill:#0d1a1f}.st139{clip-path:url(#SVGID_35_);fill:#3c9242}.st140{fill:#edc226}.st140,.st141{clip-path:url(#SVGID_35_)}.st142{clip-path:url(#SVGID_37_);fill:#2d146e}.st143,.st144{fill:none;stroke:#fff;stroke-miterlimit:10}.st144{stroke:#112127;stroke-linecap:round;stroke-linejoin:round}.st145{fill:#e06e1f}.st146{fill:#ccced6}.st147{fill:#71789d}.st148{fill:none;stroke:#7795a6;stroke-width:1.5;stroke-miterlimit:10}.st149{filter:url(#Adobe_OpacityMaskFilter_27_)}.st150{mask:url(#b_35_)}.st151{opacity:.1;clip-path:url(#SVGID_39_)}.st152{fill:#6e6e6e}.st153{fill:#404040}.st154{fill:#8c8c8c}.st155,.st156,.st157,.st158,.st159,.st160,.st161{fill:none;stroke:#8c8c8c;stroke-width:2;stroke-linecap:round;stroke-linejoin:round}.st156{stroke-dasharray:6.8126,6.8126}.st157{stroke-dasharray:7.1679,7.1679}.st158{stroke-dasharray:6.9047,6.9047}.st159{stroke-dasharray:6.9191,6.9191}.st160{stroke-dasharray:6.7991,6.7991}.st161{stroke-dasharray:7.2474,7.2474}.st162,.st163{fill:none;stroke:#5ea58a;stroke-miterlimit:10}.st163{opacity:.2;stroke:#57666b}.st164{opacity:.7;fill:#f4f6f7}.st165{opacity:.1;clip-path:url(#SVGID_41_)}.st166{clip-path:url(#SVGID_44_)}.st166,.st167{opacity:.15}.st168{fill:url(#SVGID_45_)}.st169{opacity:.1}.st170{opacity:.4}.st171{opacity:.2}.st172{fill:#159aff}.st173{clip-path:url(#SVGID_56_)}.st174{filter:url(#Adobe_OpacityMaskFilter_28_)}.st175{clip-path:url(#SVGID_57_);fill:url(#SVGID_59_)}.st176,.st177{fill:none;stroke:#fff;stroke-width:1.5;stroke-miterlimit:10}.st177{fill:#fff;stroke:#7795a6}.st178{filter:url(#Adobe_OpacityMaskFilter_29_)}.st179{clip-path:url(#SVGID_61_);fill:url(#SVGID_63_)}.st180{stroke:#5ea58a;stroke-width:1.5}.st180,.st181,.st182,.st183{fill:none;stroke-miterlimit:10}.st181{stroke-linecap:round;stroke:#fff}.st182,.st183{stroke:#ff3d3d;stroke-width:2}.st183{stroke:#5ea58a}.st184{fill:#ff3d3d}.st185{fill:none;stroke:#5ea58a;stroke-width:3;stroke-linecap:round;stroke-linejoin:round;stroke-miterlimit:10}.st186{fill:#bfc3c9}.st187{opacity:.1;clip-path:url(#SVGID_79_)}.st188{fill:none;stroke:#dadee6;stroke-miterlimit:10}.st189{opacity:.1;clip-path:url(#SVGID_81_)}.st190{filter:url(#Adobe_OpacityMaskFilter_30_)}.st191{clip-path:url(#SVGID_89_);fill:url(#SVGID_91_)}.st192{filter:url(#Adobe_OpacityMaskFilter_31_)}.st193{clip-path:url(#SVGID_93_);fill:url(#SVGID_95_)}</style><defs><path id="SVGID_29_" d="M-1607.8 1485.1h1920v988h-1920z"/></defs><clipPath id="SVGID_2_"><use xlink:href="#SVGID_29_" overflow="visible"/></clipPath><g class="st167"><path d="M150.5 241.8c13-10.6 58.9 0 58.9 0-37.2 8.9-62.3 32.3-62.3 32.3s-9.7-21.6 3.4-32.3"/><path d="M12.4 278.4c6.3-6.7 71.9-71.6 132.5-97.6 40.6-17.4 47.2-91.2 173-130.7C374.6 32.3 474.5 39.2 477 0c18.6 21.9 9.7 61-40.3 65.5 22.9-1.1 122.2-.6 185.4 83.2 37.9 50.3 63.4 88.4 109.5 88.4 3.5 10.5 5.7 22.9 6.8 36.7-32.1-7.7-72.5-25.8-98.1-67.9-40.8-67.3-110.8-101.4-208.1-101.4l-.3 13.6h.3c92.2 0 158.2 31.9 196.4 94.8 29.4 48.4 75.3 67.7 110.4 75.3.2 8.4 0 17.2-.6 26.3-32.1-7.7-72.5-25.8-98.1-67.9-40.8-67.3-110.8-101.4-208.1-101.4l-.3 13.6h.3c92.1 0 158.2 31.9 196.4 94.8 28.8 47.6 73.7 67 108.7 74.9-.8 8.4-2 16.9-3.3 25.6-31.3-8.3-69.3-26.6-93.6-66.8-41-67.3-111-101.4-208.3-101.4l-.3 13.5h.3c92.2 0 158.2 31.9 196.4 94.8 27.3 45 68.9 64.8 102.9 73.5-1.5 8.2-3.3 16.5-5.3 24.8-29.6-9.2-63.5-27.7-85.9-64.6-40.8-67.3-110.8-101.4-208.1-101.4l-.3 13.5h.3c92.2 0 158.2 31.9 196.4 94.9 25 41.2 62 61.3 94.1 71.1-2.1 7.9-4.5 15.8-7 23.6-26.8-10.1-55.6-28.3-75.4-61-40.8-67.2-110.8-101.3-208.1-101.3l-.3 13.6h.3c92.2 0 158.2 31.8 196.4 94.8 22 36.4 53.5 56.3 82.7 67.2-2.6 7.5-5.4 14.8-8.4 22-22.9-10.8-45.9-28-62.6-55.5-40.8-67.4-110.8-101.5-208.1-101.5l-.3 13.6h.3c92.2 0 158.2 31.9 196.4 94.8 18.6 30.6 43.8 49.6 68.8 61.4-3.1 6.7-6.3 13.3-9.6 19.7-17.6-10.8-34.5-26-47.5-47.4-40.8-67.3-110.8-101.4-208.1-101.4l-.3 13.6h.3c92.2 0 158.2 31.9 196.4 94.8 14.6 24 33.2 40.8 52.5 52.6-3.3 5.7-6.7 11.2-10.3 16.5-11.3-9.4-21.8-21-30.6-35.4-40.8-67.3-110.8-101.3-208.1-101.3l-.3 13.5h.3c92.2 0 158.2 31.9 196.4 94.8 9.8 16.3 21.7 29.3 34.3 39.7-3.1 4.2-6.4 8.1-9.7 11.9-4.6-5.5-9-11.4-12.9-17.9-40.7-67.3-110.7-101.4-208-101.4l-.3 13.6h.3c92.2 0 158.2 31.8 196.4 94.8 4.7 7.7 9.7 14.6 15.1 20.9-2.4 2.3-4.8 4.5-7.3 6.6-41.3-63.2-110-95.1-204.2-95.1l-.3 13.5h.3c89.7 0 154.6 30.3 193.2 89.9-3.2 2.1-6.4 4-9.7 5.8-42.1-45.6-103.5-68.6-183.4-68.6l-.3 13.6h.3c73.6 0 130.5 20.4 169.8 60.6-7 2.1-14.1 3.3-21.5 3.3-71.7-52.8-225.6-64.7-335.1 16.8 38.4-76.1 45.7-134.8 9.4-155.5-53.7-30.7-111.2 31.9-92.6 72.3 0 0-144.8-13.9-94.3-118.5 0 0-26.7-7-37.1-50.6 0 0-29.9-11.5-30.9-48.2-.1-8.8 2.1-16.2 12.5-26.8m24.7 51.1c25.9 0 41.6-29.2 41.6-29.2s10.8 2.4 3.3 18.7c-7.5 16.2-30.3 19.9-31.4 36.2-1.1 16.3 14.6 37.2 22.5 39.5 7.9 2.3 53.9 11.6 60.7 24.4v11.6S77 412.8 73.7 420.2c-2.6 5.9-9.6 27.9 0 40.7 9.5 12.7 42.1 49.9 78.1 8.1 35.9-41.8 49.4-57.7 93.2-51.1 0 0-19-22.5 0-50 0 0 10.1 49.4 51.7 49.4 32.4 0 57.4-29.6 28-70.2C295.5 306.6 285 275 285 244.8c0 0 27.8-11 35.1-54.6 7-41.8 87.1-24.4 46.2 48.2 0 0 29-29.2 14.3-66.2-16.9-42.4-96-27.8-101.9 49.4 0 0-12.8-40.2 11.2-67.4 0 0-30.3-10.3-59.5 11.7s-42.7 23-73 31.2c-17.1 4.6-68 18-137.1 90.9-4.5 4.8-6 8.3-6.5 12.3-.9 4-3.1 29.2 23.3 29.2"/></g></svg>