<svg id="Camada_1" xmlns="http://www.w3.org/2000/svg" viewBox="0 0 208.3 55.6"><style>.st0{fill:#f4f6f7}.st1{fill:#fff}.st2{fill:#ededed}.st3{fill:#252a2f}.st4{opacity:.1;clip-path:url(#SVGID_2_)}.st5{fill:#6e6e6e}.st6{fill:#404040}.st7,.st8{fill:none;stroke:#5ea58a;stroke-miterlimit:10}.st8{opacity:.2;stroke:#57666b}.st9{opacity:.7;fill:#f4f6f7}.st10{opacity:.1;clip-path:url(#SVGID_4_)}.st11{opacity:.15;clip-path:url(#SVGID_7_)}.st12{fill:url(#SVGID_8_)}.st13{opacity:.1}.st14{opacity:.4}.st15{opacity:.2}.st16{fill:#95989f}.st17{fill:#5ea58a}.st18{fill:#159aff}.st19{clip-path:url(#SVGID_14_)}.st20{filter:url(#Adobe_OpacityMaskFilter)}.st21{clip-path:url(#SVGID_16_);fill:url(#SVGID_18_)}.st22,.st23{fill:none;stroke:#fff;stroke-width:1.5;stroke-miterlimit:10}.st23{fill:#fff;stroke:#7795a6}.st24{filter:url(#Adobe_OpacityMaskFilter_1_)}.st25{clip-path:url(#SVGID_20_);fill:url(#SVGID_22_)}.st26{stroke:#5ea58a;stroke-width:1.5}.st26,.st27,.st28,.st29{fill:none;stroke-miterlimit:10}.st27{stroke-linecap:round;stroke:#fff}.st28,.st29{stroke:#ff3d3d;stroke-width:2}.st29{stroke:#5ea58a}.st30{fill:#ff3d3d}.st31{fill:none;stroke:#5ea58a;stroke-width:3;stroke-linecap:round;stroke-linejoin:round;stroke-miterlimit:10}.st32{fill:#bfc3c9}.st33{opacity:.1;clip-path:url(#SVGID_34_)}.st34{fill:none;stroke:#dadee6;stroke-miterlimit:10}.st35{opacity:.3}</style><path class="st16" d="M201.1 16.4l.4 1c-1.6 1.4-1.5 3.4-2.1 5.2-2 6.2-4.2 12.4-7.3 18.2-2.6 4.9-6.5 7.3-12.1 6.7-1.2-.1-1.9-.3-1.7-1.6.1-.7.1-1.4 0-2.1-.2-1.5.4-2.1 1.9-1.9 1.1.1 2.3 0 3.4-.5 3.2-1.5 3.3-3.2.8-7.1-2.2-3.5-3.8-7.4-4.6-11.4-1-4.9-3.3-6.8 0-6.8 4.9 0 4.9 0 6.4 4.6 1.1 3.2 2.2 6.5 3.3 9.7 1-.4.9-1.3 1.1-1.9 1.1-3.6 2.2-7.1 3.2-10.7.3-.9.4-1.8 1.7-1.7 1.8.2 3.7.3 5.6.3zM93.8 26.3c2.5-5.5 5.1-10.9 7.4-16.4.6-1.4 1.3-1.7 2.7-1.7 5.3 0 5.3 0 5.3 5.4v23.6c0 1.7-.3 2.4-2.2 2.3-4.9-.1-4.9 0-4.9-4.9V23.9c-1-.2-.6.9-1.1 1.1-2.1 1-3.8 2.7-3.8 5.1 0 7.1-2.2 5.7-4 5.8-1.2.1-2.2 0-2.8-1.3C89 31 87.3 27.5 85.7 24c-.7.5-.4 1.1-.4 1.6v12.1c0 1.1-.3 1.6-1.5 1.6-5.8.4-5.8.4-5.8-5.3 0-7.9.1-15.7 0-23.6 0-2 .6-2.2 2.4-2.4 3.7-.4 5.8.7 7.1 4.4 1.4 4.1 3.4 8 5.2 11.9.3.7.3 1.6 1.1 2z"/><path class="st16" d="M176.1 33.3c.2.3.2.4.2.5.4 6 0 6.3-6 6.4-1.5 0-3.1.1-4.5-.3-6.1-1.3-9.5-6-9.1-12.8.4-8.7 7.8-14 15.6-11.2 4.8 1.7 8 8.1 6.7 12.9-.3 1.2-1.1.8-1.8.8-4 0-7.9.1-11.9 0-1.5 0-1.7.5-1.2 1.7.8 1.7 2.1 2.5 3.9 2.9 2.8.5 5.5.3 8.1-.9zm-8.2-8.2c.9 0 1.8-.1 2.7 0 2.1.2 1.8-1 1.2-2.2-1.4-2.5-5.1-2.7-6.9-.4-.5.6-1.1 1.4-.8 2.2.4.8 1.3.3 2 .4.6.1 1.2 0 1.8 0zm-45.8 15.2c-7.1 0-11.8-4.9-11.8-12.5 0-7.2 5-12.7 11.6-12.7 6.6-.1 11.7 5.4 11.7 12.6.2 7.6-4.4 12.6-11.5 12.6zm-4.9-12.4c0 .4 0 1 .1 1.6.5 3.1 2.3 5 4.7 5 2.3 0 4-1.7 4.6-4.8.1-.7.2-1.4.2-2 0-4-1.9-6.6-4.8-6.6s-4.7 2.6-4.8 6.8zm-40.6-2.2c-.1 7-1.6 11.1-6 13.3-4.1 2.1-8.4 2-12.4-.6-4.2-2.7-6.1-9-4.5-14.5 1.4-4.9 5.8-8.6 10.8-8.7 5.3-.3 12.3 3.5 12.1 10.5zm-6.9 2.2c0-4.3-1.8-6.8-4.8-6.8-2.9 0-4.8 2.7-4.8 6.6 0 4 2 6.8 4.9 6.8 2.9 0 4.6-2.5 4.7-6.6zm-45.8 2.4v6.9c0 .5.2 1.1 0 1.3-1.7 1.9-3.9.4-5.9.8-.9.2-1.4-.2-1.4-1.3 0-6.7.1-13.4.1-20.1 0-.9.4-1.4 1.2-1.6 4.4-1.4 8.7-2 13.2-.5 3.8 1.3 5.8 4 6 7.8.2 4.8.1 9.6.1 14.4 0 1-.3 1.4-1.3 1.3h-.2c-5.5.3-5.5.3-5.6-5.3 0-3.3.3-6.6-.2-9.8-.4-2.5-3-3.8-5.3-2.9-.8.3-.7.9-.7 1.5v7.5zm111.3-2.2v-9.6c0-.9 0-1.6 1.1-1.9 4.5-1.4 9-2.1 13.6-.3 3.3 1.2 5.1 3.7 5.5 7.2.6 4.9.6 9.9.1 14.8-.3 3-3.3.8-5 1.3-.9.3-2.1.4-2.1-1.4.1-4.2.1-8.4 0-12.6-.1-3.2-1.5-4.4-4.4-4.2-1.3.1-2 .5-1.9 2.1.1 4.7 0 9.4.1 14.2 0 1.6-.4 2-2 2-5.1 0-5.1 0-5.1-5.1 0-2.2 0-4.4.1-6.5-.1 0 0 0 0 0zm-95-1c0-5.7-.1-11.4.3-17 0-.1.1-.1.1-.2 3.6-1.2 7.3-1.1 10.9-1.1 2.6 0 4.1 2.5 2.9 4.9-.3.5-.7.5-1.1.5h-3c-2.3.1-3.7 2.6-2.7 4.6.4.8 1.2.4 1.8.6.1.1.3.1.4.1 3-.7 4-.1 3.9 2.6 0 2.3-.7 2.8-2.9 2.7-4.7-.2-2.8.1-3.6 9.1v.8c.3 5.6 1.5 5.9-7 4.6-.1 0-.1-.1-.1-.1 0-4 0-8 .1-12.1-.1 0-.1 0 0 0zm-26.1-3.4v13.9c0 1.2-.3 1.7-1.6 1.7-5.7.2-5.7.2-5.7-5.4V10.2c0-1.5.3-2.1 2-2.1 5.3 0 5.3 0 5.3 5.3v10.3z"/></svg>