<svg id="Camada_1" xmlns="http://www.w3.org/2000/svg" viewBox="0 0 208.3 55.6"><style>.st0{fill:#f4f6f7}.st1{fill:#fff}.st2{fill:#ededed}.st3{fill:#252a2f}.st4{opacity:.1;clip-path:url(#SVGID_2_)}.st5{fill:#6e6e6e}.st6{fill:#404040}.st7,.st8{fill:none;stroke:#5ea58a;stroke-miterlimit:10}.st8{opacity:.2;stroke:#57666b}.st9{opacity:.7;fill:#f4f6f7}.st10{opacity:.1;clip-path:url(#SVGID_4_)}.st11{opacity:.15;clip-path:url(#SVGID_7_)}.st12{fill:url(#SVGID_8_)}.st13{opacity:.1}.st14{opacity:.4}.st15{opacity:.2}.st16{fill:#95989f}.st17{fill:#5ea58a}.st18{fill:#159aff}.st19{clip-path:url(#SVGID_14_)}.st20{filter:url(#Adobe_OpacityMaskFilter)}.st21{clip-path:url(#SVGID_16_);fill:url(#SVGID_18_)}.st22,.st23{fill:none;stroke:#fff;stroke-width:1.5;stroke-miterlimit:10}.st23{fill:#fff;stroke:#7795a6}.st24{filter:url(#Adobe_OpacityMaskFilter_1_)}.st25{clip-path:url(#SVGID_20_);fill:url(#SVGID_22_)}.st26{stroke:#5ea58a;stroke-width:1.5}.st26,.st27,.st28,.st29{fill:none;stroke-miterlimit:10}.st27{stroke-linecap:round;stroke:#fff}.st28,.st29{stroke:#ff3d3d;stroke-width:2}.st29{stroke:#5ea58a}.st30{fill:#ff3d3d}.st31{fill:none;stroke:#5ea58a;stroke-width:3;stroke-linecap:round;stroke-linejoin:round;stroke-miterlimit:10}.st32{fill:#bfc3c9}.st33{opacity:.1;clip-path:url(#SVGID_34_)}.st34{fill:none;stroke:#dadee6;stroke-miterlimit:10}.st35{opacity:.3}</style><path class="st16" d="M64.1 38.1V18c.1 0 .1-.1.1-.2.1-1.1.3-2.2.7-3.3C67 8 73.2 2.3 81.8 2.3h29.8c0 .1-.1.2-.1.2-2.8 3.8-5.7 7.6-8.5 11.5-.1.2-.3.2-.5.2H86.6c-.4 0-.8 0-1.2.1-1.2.3-2 .9-2.4 2.1-.2.6-.3 1.3-.3 1.9v15.8c0 .5.1 1 .4 1.5.9 1.5 2.3 2.3 4.1 2.3h10.6c.3 0 .3-.1.3-.3V23c0-.2.2-.4.4-.4h18c.2 0 .4.2.4.4v30.2H79.6c-.4-.2-.8-.1-1.2-.2-2.5-.4-4.8-1.3-7-2.8-4-2.7-6.5-6.3-7.2-11.1 0-.3 0-.6-.1-1z"/><path class="st16" d="M144 53.3h-18.6v-35c0-1.7-.8-2.8-2.2-3.5-.7-.4-1.6-.5-2.4-.5h-9c0-.1.1-.2.1-.2 2.5-3.4 5.1-6.8 7.6-10.2.4-.5.8-1 1.1-1.5h19.8c0 .1.1.1.1.1 1.6.3 2.7 1.2 3.3 2.7.2.5.3 1 .5 1.5-.1.5-.1.9-.1 1.5-.2-.1-.2.1-.2.2v15.3c.1.1.1.2 0 .3v29.3z"/><path class="st16" d="M143.7 53.4V23.8h.1v29.4s0 .1-.1.2zm.4-29.7s-.1 0 0 0c-.1-.1-.1-.2-.1-.4V8.4c0-.1 0-.3.1-.4v15.7z"/></svg>