<svg id="Camada_1" xmlns="http://www.w3.org/2000/svg" viewBox="0 0 208.3 55.6"><style>.st0{fill:#f4f6f7}.st1{fill:#fff}.st2{fill:#ededed}.st3{fill:#252a2f}.st4{opacity:.1;clip-path:url(#SVGID_2_)}.st5{fill:#6e6e6e}.st6{fill:#404040}.st7,.st8{fill:none;stroke:#5ea58a;stroke-miterlimit:10}.st8{opacity:.2;stroke:#57666b}.st9{opacity:.7;fill:#f4f6f7}.st10{opacity:.1;clip-path:url(#SVGID_4_)}.st11{opacity:.15;clip-path:url(#SVGID_7_)}.st12{fill:url(#SVGID_8_)}.st13{opacity:.1}.st14{opacity:.4}.st15{opacity:.2}.st16{fill:#95989f}.st17{fill:#5ea58a}.st18{fill:#159aff}.st19{clip-path:url(#SVGID_14_)}.st20{filter:url(#Adobe_OpacityMaskFilter)}.st21{clip-path:url(#SVGID_16_);fill:url(#SVGID_18_)}.st22,.st23{fill:none;stroke:#fff;stroke-width:1.5;stroke-miterlimit:10}.st23{fill:#fff;stroke:#7795a6}.st24{filter:url(#Adobe_OpacityMaskFilter_1_)}.st25{clip-path:url(#SVGID_20_);fill:url(#SVGID_22_)}.st26{stroke:#5ea58a;stroke-width:1.5}.st26,.st27,.st28,.st29{fill:none;stroke-miterlimit:10}.st27{stroke-linecap:round;stroke:#fff}.st28,.st29{stroke:#ff3d3d;stroke-width:2}.st29{stroke:#5ea58a}.st30{fill:#ff3d3d}.st31{fill:none;stroke:#5ea58a;stroke-width:3;stroke-linecap:round;stroke-linejoin:round;stroke-miterlimit:10}.st32{fill:#bfc3c9}.st33{opacity:.1;clip-path:url(#SVGID_34_)}.st34{fill:none;stroke:#dadee6;stroke-miterlimit:10}.st35{opacity:.3}</style><path class="st16" d="M20.8 8.6c.2.1.5.1.7.1 2.8.3 5.5 1.1 8 2.3.2.1.2.2.1.3-.8 2.3-1.7 4.6-2.5 6.9 0 .1-.2.2-.3.1-1.7-.8-3.5-1.6-5.4-1.9-1.2-.2-2.4-.3-3.6-.1-.4.1-.7.2-1 .4-1.1.8-1.2 2.2-.2 3.2.5.5 1.1.9 1.7 1.2 1.8 1 3.6 1.9 5.4 2.8 1.1.6 2.1 1.3 3.1 2.1 1.4 1.2 2.3 2.8 2.7 4.5.5 2.4.5 4.8-.4 7.1-1.2 3-3.4 4.9-6.4 6.1-1.5.5-3 .8-4.6.9-2.4.1-4.8 0-7.1-.6-1.3-.3-2.6-.9-3.8-1.5-.4-.2-.1-.4.9-3.8.5-1.6-.2-3.2-1.1-4.6V34c.6.3 1.1.6 1.7.8 2.2 1 4.5 1.7 6.9 2 1.1.1 2.3.2 3.4-.1 1-.3 1.8-.9 2-2 .1-.8-.2-1.6-.7-2.1-.5-.5-1.1-.9-1.8-1.2-1.6-.9-3.3-1.6-4.9-2.5-1.4-.8-2.7-1.6-3.8-2.8-1.4-1.5-2.2-3.3-2.4-5.3-.2-1.8-.2-3.6.3-5.3.8-2.7 2.6-4.5 5.2-5.7 1.6-.7 3.2-1 4.9-1.2.1 0 .2 0 .3-.1.8.1 1.8.1 2.7.1zm106.4 0c.4.1.8.1 1.2.2 2.6.3 5.1 1.1 7.5 2.3.1.1.2.2.1.3-.8 2.3-1.7 4.6-2.5 6.9-.1.2-.2.2-.4.1-1.7-.8-3.5-1.5-5.4-1.9-1.3-.2-2.5-.4-3.8 0-.9.3-1.5.9-1.7 1.8-.1.7.2 1.2.6 1.7.3.3.7.6 1.1.8 1.5.9 3.1 1.7 4.7 2.5 1.3.6 2.6 1.4 3.7 2.3 1.9 1.4 3.1 3.3 3.5 5.6.4 2.1.3 4.1-.4 6.2-1.1 3.2-3.4 5.2-6.5 6.4-1.5.6-3.1.8-4.7.9-2.3.1-4.5 0-6.7-.6-1.4-.3-2.7-.9-4-1.5-.3-.2-.3-.3.9-3 .8-1.8.2-3.8-1.1-5.4v-.1c.5.3 1.1.5 1.6.8 2.2 1 4.5 1.7 6.9 2 1.1.1 2.3.2 3.4-.1 1.3-.3 2.1-1.3 2-2.5 0-.7-.3-1.3-.8-1.7-.6-.6-1.4-1-2.2-1.4-1.6-.9-3.3-1.6-4.9-2.5-1.4-.8-2.6-1.7-3.7-2.9-1.1-1.4-1.8-3-2-4.8-.2-1.8-.2-3.5.3-5.2.8-2.7 2.5-4.5 5-5.7 1.6-.8 3.4-1.2 5.2-1.3.1 0 .2 0 .3-.1 1-.1 1.9-.1 2.8-.1zM201.3 27c-.2.6-.4 1.1-.9 1.6-.9.8-2.2.9-3.2.3-1-.6-1.5-1.9-1.1-3 .4-1.1 1.4-1.9 2.6-1.9 1.2 0 2.2.9 2.5 2 0 .1 0 .1.1.2v.8zM94.2 19.2c.7-.5 1.3-1 1.9-1.5.5-.3.9-.7 1.4-1 .2-.1.3-.3.4-.5.7-1.7 1.3-3.4 2-5.2.1-.2.2-.3.4-.3h5.1c.2 0 .3.1.3.3v4.9c0 .3.1.3.3.3h5.5c.3 0 .3 0 .3.3v6.4c0 .2-.1.3-.3.3h-5.6c-.2 0-.3.1-.3.3v10.2c0 .4 0 .8.1 1.2.3 1 1 1.5 2 1.5 1.4.1 2.7-.3 3.9-.7.5-.2.5-.2.5.4v6c0 .2-.1.3-.2.4-2.5 1.2-5.2 1.5-7.9 1.4-1.1-.1-2.2-.3-3.2-.8-1.6-.8-2.6-2.1-3.2-3.7-.5-1.5-.7-3-.7-4.5V23.7c0-.2 0-.3-.3-.3H94c-.2 0-.2.1-.2.2 0 .4-.1.8-.1 1.1 0 .2-.1.3-.3.2-1.5-.3-3-.4-4.5 0-1.9.4-3 1.6-3.4 3.5-.1.7-.2 1.3-.2 2v12.8c0 .3-.1.3-.3.3h-8c-.3 0-.3 0-.3-.3V16.7c0-.3.1-.3.3-.3h5.8c.2 0 .3.1.4.3.4 1.3.8 2.5 1.2 3.8 0 .1 0 .3.2.3s.3 0 .4-.2c1.1-2 2.6-3.4 4.7-4.2 1.1-.4 2.2-.4 3.3-.3.3 0 .7.1 1 .1.3 0 .4.2.4.5-.1.8-.2 1.6-.2 2.3v.2zM73 34v9.2c0 .2-.1.3-.3.3h-5.4c-.2 0-.3-.1-.4-.3-.5-1-.9-2-1.4-3.1-.2-.4-.2-.4-.5-.1-.5.6-1 1.2-1.5 1.7-1 1-2.3 1.6-3.7 1.9-1.6.3-3.3.4-4.9.1-2.5-.5-4.1-2.1-5-4.4-.8-2.3-.9-4.6-.3-7 .6-2.2 2-3.6 4-4.6 1.5-.7 3.2-1.1 4.9-1.3 1.8-.2 3.7-.2 5.6-.3.3 0 .3-.1.3-.3 0-.4 0-.8-.1-1.2-.3-1.4-1.2-2.1-2.6-2.2-1.5-.1-3 .3-4.4.8-.9.3-1.8.7-2.7 1.1-.2.1-.3.1-.4-.1-.8-1.9-1.5-3.8-2.3-5.7-.1-.2 0-.3.1-.4 1.7-.9 3.6-1.5 5.5-1.9 2.1-.4 4.3-.5 6.5-.4 1.6.1 3.2.4 4.6 1.3 2.3 1.3 3.6 3.3 4.2 5.9.2.9.2 1.8.2 2.8V34zm-8.6-1.3v-1.1c0-.2 0-.3-.3-.3-.6 0-1.1.1-1.7.1-.7 0-1.4.1-2.1.3-1.1.4-1.9 1-2.1 2.1-.1.6-.1 1.2 0 1.8.2.8.7 1.4 1.6 1.6.2.1.5.1.7.1 1.7.1 3.3-1 3.7-2.6.2-.7.2-1.4.2-2zm95.5 2.5v6.5c0 .2-.1.2-.2.3-1.8 1-3.7 1.5-5.7 1.7-1.4.1-2.8.2-4.1.2-2.2-.1-4.3-.4-6.2-1.4-2.9-1.5-4.8-3.9-5.7-7.1-.6-2.1-.8-4.2-.7-6.3.1-1.9.3-3.8 1-5.7 1.2-3.3 3.3-5.7 6.7-6.9 1.7-.6 3.5-.8 5.3-.7 1.7 0 3.3.3 4.9.9 3.1 1.3 5 3.6 5.9 6.8.4 1.6.6 3.2.6 4.8V32c0 .3-.1.3-.3.3h-14.9c-.4 0-.4 0-.3.4.2 1.9 1.1 3.3 3 4.1.8.3 1.6.4 2.5.4 2.8 0 5.5-.6 8.1-1.9-.1 0 0-.1.1-.1zm-10-8.7h3.5c.2 0 .3 0 .2-.2-.1-.5-.1-1-.3-1.5-.5-1.5-1.7-2.5-3.1-2.5-1.7-.1-3 .7-3.6 2.2-.3.6-.4 1.2-.5 1.9 0 .2 0 .3.2.3 1.3-.2 2.5-.2 3.6-.2zM33.2 29.6v-6.1c0-.2 0-.3-.3-.3h-2.5c-.2 0-.2 0-.2-.2v-3.4c0-.2.1-.3.2-.3 1.2-.9 2.3-1.8 3.5-2.6.1-.1.2-.2.3-.4.7-1.8 1.4-3.5 2.1-5.3.1-.2.2-.2.4-.2h5.2c.2 0 .3.1.3.3V16c0 .2.1.3.3.3h5.6c.2 0 .3.1.3.3V23c0 .2-.1.3-.3.3h-5.6c-.2 0-.3.1-.3.3v10.2c0 .4 0 .7.1 1.1.2 1 .9 1.6 2 1.7 1.4.1 2.6-.3 3.9-.7.5-.2.5-.2.5.4v5.9c0 .2-.1.4-.3.5-2.5 1.2-5.2 1.5-7.9 1.3-1.4-.2-2.5-.5-3.5-1-1.7-.8-2.6-2.2-3.2-3.9-.5-1.6-.6-3.2-.6-4.8v-4.7zm146.7 11.1c0 1.5-1.2 2.7-2.6 2.7-1.5 0-2.7-1.2-2.7-2.7 0-1.4 1.2-2.7 2.6-2.7 1.5.1 2.7 1.3 2.7 2.7zm-2.6-25.6c-1.5 0-2.7-1.2-2.6-2.7 0-1.5 1.2-2.6 2.6-2.6 1.5 0 2.6 1.2 2.6 2.6 0 1.5-1.1 2.7-2.6 2.7zm-7 0c-1.5 0-2.6-1.2-2.6-2.6 0-1.5 1.2-2.7 2.6-2.7 1.4 0 2.6 1.2 2.6 2.6 0 1.5-1.2 2.7-2.6 2.7zm21.1 7.1c-1.5 0-2.6-1.2-2.6-2.7 0-1.4 1.2-2.6 2.6-2.6 1.4 0 2.6 1.2 2.6 2.7 0 1.4-1.2 2.6-2.6 2.6zm-21.1 0c-1.5 0-2.6-1.2-2.6-2.7 0-1.5 1.2-2.6 2.6-2.6 1.5 0 2.6 1.2 2.6 2.6 0 1.5-1.2 2.7-2.6 2.7zm7 0c-1.5 0-2.6-1.2-2.6-2.6 0-1.5 1.2-2.7 2.6-2.7 1.4 0 2.6 1.2 2.6 2.6 0 1.5-1.1 2.7-2.6 2.7zm-7 7c-1.5 0-2.6-1.2-2.6-2.6 0-1.5 1.2-2.7 2.6-2.7 1.4 0 2.6 1.2 2.7 2.6-.1 1.5-1.3 2.7-2.7 2.7zm21.1 0c-1.5 0-2.6-1.2-2.6-2.6 0-1.5 1.2-2.7 2.6-2.7 1.4 0 2.6 1.2 2.6 2.6 0 1.5-1.2 2.7-2.6 2.7zm-14.1 7.1c-1.5 0-2.6-1.2-2.6-2.6 0-1.5 1.2-2.7 2.7-2.7 1.4 0 2.6 1.2 2.6 2.7-.1 1.4-1.2 2.6-2.7 2.6zm-7.1 1.8c1.5 0 2.7 1.2 2.7 2.7 0 1.5-1.2 2.7-2.7 2.7-1.4 0-2.6-1.2-2.6-2.7 0-1.5 1.2-2.7 2.6-2.7zM187 19.5c0 1.5-1.2 2.6-2.7 2.6-1.5 0-2.6-1.2-2.6-2.7 0-1.5 1.2-2.6 2.6-2.6 1.5.1 2.7 1.3 2.7 2.7zm-9.7 9.7c-1.5 0-2.6-1.2-2.6-2.7 0-1.5 1.2-2.7 2.7-2.6 1.5 0 2.6 1.2 2.6 2.7-.1 1.5-1.3 2.7-2.7 2.6zm-7 7.1c-1.4 0-2.6-1.2-2.7-2.6 0-1.5 1.1-2.7 2.6-2.7s2.7 1.2 2.7 2.7c0 1.4-1.2 2.6-2.6 2.6zm21.1 0c-1.5 0-2.6-1.2-2.7-2.6 0-1.5 1.2-2.7 2.6-2.7 1.5 0 2.7 1.2 2.7 2.7 0 1.4-1.2 2.6-2.6 2.6zm-4.4 4.4c0 1.5-1.2 2.7-2.6 2.7-1.5 0-2.6-1.2-2.6-2.7 0-1.5 1.2-2.7 2.6-2.7 1.4.1 2.6 1.3 2.6 2.7zm-2.7-11.5c-1.5 0-2.6-1.2-2.6-2.7 0-1.5 1.2-2.6 2.6-2.6 1.5 0 2.6 1.2 2.6 2.7.1 1.5-1.1 2.7-2.6 2.6zm2.7-16.7c0 1.5-1.2 2.6-2.6 2.6-1.5 0-2.6-1.2-2.6-2.7 0-1.5 1.2-2.6 2.7-2.6 1.3 0 2.5 1.2 2.5 2.7zm0 21.2c0 1.5-1.2 2.6-2.6 2.6-1.5 0-2.6-1.2-2.6-2.7 0-1.5 1.2-2.6 2.6-2.6 1.4 0 2.6 1.2 2.6 2.7z"/></svg>