<svg id="Camada_1" xmlns="http://www.w3.org/2000/svg" viewBox="0 0 208.3 55.6"><style>.st0{fill:#f4f6f7}.st1{fill:#fff}.st2{fill:#ededed}.st3{fill:#252a2f}.st4{opacity:.1;clip-path:url(#SVGID_2_)}.st5{fill:#6e6e6e}.st6{fill:#404040}.st7,.st8{fill:none;stroke:#5ea58a;stroke-miterlimit:10}.st8{opacity:.2;stroke:#57666b}.st9{opacity:.7;fill:#f4f6f7}.st10{opacity:.1;clip-path:url(#SVGID_4_)}.st11{opacity:.15;clip-path:url(#SVGID_7_)}.st12{fill:url(#SVGID_8_)}.st13{opacity:.1}.st14{opacity:.4}.st15{opacity:.2}.st16{fill:#95989f}.st17{fill:#5ea58a}.st18{fill:#159aff}.st19{clip-path:url(#SVGID_14_)}.st20{filter:url(#Adobe_OpacityMaskFilter)}.st21{clip-path:url(#SVGID_16_);fill:url(#SVGID_18_)}.st22,.st23{fill:none;stroke:#fff;stroke-width:1.5;stroke-miterlimit:10}.st23{fill:#fff;stroke:#7795a6}.st24{filter:url(#Adobe_OpacityMaskFilter_1_)}.st25{clip-path:url(#SVGID_20_);fill:url(#SVGID_22_)}.st26{stroke:#5ea58a;stroke-width:1.5}.st26,.st27,.st28,.st29{fill:none;stroke-miterlimit:10}.st27{stroke-linecap:round;stroke:#fff}.st28,.st29{stroke:#ff3d3d;stroke-width:2}.st29{stroke:#5ea58a}.st30{fill:#ff3d3d}.st31{fill:none;stroke:#5ea58a;stroke-width:3;stroke-linecap:round;stroke-linejoin:round;stroke-miterlimit:10}.st32{fill:#bfc3c9}.st33{opacity:.1;clip-path:url(#SVGID_34_)}.st34{fill:none;stroke:#dadee6;stroke-miterlimit:10}.st35{opacity:.3}</style><path id="Fill-12_10_" class="st16" d="M175.6 23.7v-16h-11.4l2.1-3h-7.9l-2.1 3h-13.7v9h4v23h-4v9h33v-15h-10v7h-9v-7h6v-10h-6v-7h9v7h10zm-50.3 14.9c-5.8 0-10.6-4.7-10.6-10.6 0-5.8 4.7-10.6 10.6-10.6 5.8 0 10.6 4.7 10.6 10.6 0 5.9-4.7 10.6-10.6 10.6zm0-31.3c-3.9 0-7.5 1.1-10.6 3.1V7.7H72.6V9s-3.1-2-7.3-2c-7.9 0-13.5 6-13.5 12.4 0 7.9 5.2 10.5 11.5 12.7 2.6.9 4.7 1.5 6 2.1 1.6.8 2.3 2.1 2.3 3.3 0 2-1.8 3.7-4 3.7-4.6 0-5.8-5.6-5.8-5.6H51.7v5h-4v-24h5v-9h-20v9h4v24h-4v8h20v1h9v-1.5s3.3 2.1 8.3 2.1c7.5 0 14.2-5.4 14.2-12.8 0-8.2-7-11.4-11.8-12.8-2.4-.7-5-1.6-6.4-2.2-1.9-.8-2.7-1.9-2.7-3.4 0-2.5 2.2-3.6 4-3.6 5.1 0 6 6.2 6 6.2h10.3v-5.2.2h5v23h-5v9h20v-8h-5v-24h6v13.2c0 9.4 6.2 18 15.3 20.4 13.7 3.7 26-7.2 26-21.1 0-12-9.2-21.8-20.6-21.8z"/></svg>